<?xml version="1.0" standalone="no"?><!DOCTYPE svg PUBLIC "-//W3C//DTD SVG 1.1//EN" "http://www.w3.org/Graphics/SVG/1.1/DTD/svg11.dtd"><svg t="1757911354074" class="icon" viewBox="0 0 1024 1024" version="1.1" xmlns="http://www.w3.org/2000/svg" p-id="3307" xmlns:xlink="http://www.w3.org/1999/xlink" width="200" height="200"><path d="M704 384a64 64 0 1 1-128 0 64 64 0 0 1 128 0z" p-id="3308"></path><path d="M128 256a64 64 0 0 1 64-64h640a64 64 0 0 1 64 64v512a64 64 0 0 1-64 64H192a64 64 0 0 1-64-64V256z m64 0v462.72L368 448l192 219.456 96-109.76L832 758.848V256H192zM960 288a64 64 0 0 1 64 64v320a64 64 0 0 1-64 64h-32v-448h32zM0 352a64 64 0 0 1 64-64h32v448H64a64 64 0 0 1-64-64v-320z" p-id="3309"></path></svg>