<?xml version="1.0" standalone="no"?><!DOCTYPE svg PUBLIC "-//W3C//DTD SVG 1.1//EN" "http://www.w3.org/Graphics/SVG/1.1/DTD/svg11.dtd"><svg t="1761121081008" class="icon" viewBox="0 0 1024 1024" version="1.1" xmlns="http://www.w3.org/2000/svg" p-id="5024" xmlns:xlink="http://www.w3.org/1999/xlink" width="200" height="200"><path d="M1023.658854 696.64483l-329.265935-110.722068a571.864983 571.864983 0 0 0 52.30722-112.155143 523.993469 523.993469 0 0 0 30.879344-115.055413l-213.152777-1.740162V284.158209l258.124021-1.808404V230.895605h-258.192263V113.758822H437.940818v117.170904H197.116053v51.4542l240.824765-1.706041v78.068441H244.748721v40.944987h397.609943a382.357935 382.357935 0 0 1-19.619472 74.28103c-15.252008 41.183833-30.947586 77.215421-30.947586 77.215421s-186.70914-65.341375-285.079471-65.341374-218.032055 39.511912-229.633135 154.226117 55.719303 176.74586 150.541069 199.606811a376.352671 376.352671 0 0 0 258.533471-37.532905 600.765319 600.765319 0 0 0 150.984639-121.913698l383.756889 186.367931a189.370564 189.370564 0 0 1-186.811503 157.22875H189.541231a189.370564 189.370564 0 0 1-189.541168-189.19996v-644.883543A189.370564 189.370564 0 0 1 189.200023 0.204725h644.883542a189.370564 189.370564 0 0 1 189.541169 189.19996v507.44487z m-479.875245-64.147146s-119.798207 151.223485-260.921929 151.223485-170.842958-71.858452-170.842958-123.517377 29.343907-107.787678 149.483323-116.010796 282.349805 88.202326 282.349805 88.202326z" fill="#1677FF" p-id="5025"></path></svg>